<?xml version="1.0" encoding="utf-8"?>
<!-- Generator: Adobe Illustrator 19.0.0, SVG Export Plug-In . SVG Version: 6.00 Build 0)  -->
<svg version="1.1" id="Layer_1" xmlns="http://www.w3.org/2000/svg" xmlns:xlink="http://www.w3.org/1999/xlink" x="0px" y="0px"
	 viewBox="0 0 62.5 85.2" style="enable-background:new 0 0 62.5 85.2;" xml:space="preserve">
<style type="text/css">
	.st0{fill:#FCC490;}
	.st1{fill:#D3D3D3;}
	.st2{fill:#EDA672;}
</style>
<path class="st0" d="M4.9,39.2C3.8,46.5,6,68.4,11.4,75.6c2.3,3,4.6,4.5,8.8,5.7c2.8,2.4,8.8,3.9,11.7,3.9c3.2,0,9.6-1.9,11.4-3.9
	c3.4-0.9,7.3-3.3,9-6.3c6-10.9,6.8-36.9,5.5-45c-1.3-8.1-16.5-18.6-29.1-16.5C14,15.9,7.6,21.1,4.9,39.2z"/>
<path class="st0" d="M55.9,53.8c0.6-0.8,1.4-1.5,2.3-1.8c1-0.3,2-0.2,2.8,0.4c1,0.7,1.5,2.1,1.4,3.4c-0.1,1.3-0.5,2.5-1,3.6
	c-0.7,1.7-1.6,3.5-3.1,4.6c-1.5,1.1-3.8,1.4-5.1,0L55.9,53.8z"/>
<path class="st0" d="M6.6,53.8C6,53,5.2,52.3,4.3,52.1c-1-0.3-2-0.2-2.8,0.4c-1,0.7-1.5,2.1-1.4,3.4c0.1,1.3,0.5,2.5,1,3.6
	c0.7,1.7,1.6,3.5,3.1,4.6c1.5,1.1,3.8,1.4,5.1,0L6.6,53.8z"/>
<path class="st1" d="M5.8,56c0,0-2.4-8.8-2.5-16.9c0-3.5,3.2-15.7,4.8-15.7c1.2,0,5.1,5.2,5.4,6.8C13.8,31.3,5.8,56,5.8,56z"/>
<path class="st1" d="M57.4,56c0,0,2.4-8.8,2.5-16.9c0-3.5-3.2-15.7-4.8-15.7c-1.2,0-4.4,5.8-4.8,7.4C50.1,32,57.4,56,57.4,56z"/>
<path class="st2" d="M49.1,59.5c0.8,0.6,1.6,1.1,2.4,1.7c0-0.1,0-0.2,0-0.3C51,60.1,50.1,59.5,49.1,59.5z"/>
<path class="st2" d="M53.1,59.5c-0.3-0.6-0.9-1-1.5-1.2c-0.6-0.2-1.4-0.1-1.9,0.3C50.8,58.6,52,58.9,53.1,59.5z"/>
<path class="st2" d="M13.5,59.5c-0.8,0.6-1.6,1.1-2.4,1.7c0-0.1,0-0.2,0-0.3C11.7,60.1,12.6,59.5,13.5,59.5z"/>
<path class="st2" d="M9.6,59.5c0.3-0.6,0.9-1,1.5-1.2c0.6-0.2,1.4-0.1,1.9,0.3C11.8,58.6,10.6,58.9,9.6,59.5z"/>
<path class="st1" d="M53.9,21.4c-5.2-4.3-12.2-8.8-18.8-9.6c-4.1-0.5-8.3,0.4-12.1,2c-3.8,1.5-8.5,3.2-11.8,5.8
	C9.2,21,7,24.6,7,24.6c0,1.8,2,3.8,3.6,4.5s3.4,0.9,5.1,1c5.8,0.4,11.5,0.7,17.3,0.9c5.6,0.2,11.2,0.2,16.7-0.6
	c1.3-0.2,2.6-0.4,3.8-1.1c1.2-0.6,3.1-2.1,3.3-3.4C56.8,26,55.6,22.7,53.9,21.4z"/>
<path class="st1" d="M25.7,14.4c3.7,0.8,7.6,1,11.4,0.9c2.8-0.1,5.6-0.4,8-1.9c2.4-1.4,4.1-4.2,3.6-6.9c-0.4-2-2-3.7-3.8-4.7
	c-1.9-1-4-1.3-6-1.5c-4.7-0.5-9.6-0.6-13.9,1.3c-1.9,0.8-3.7,2.1-4.8,3.9s-1.2,4.2-0.1,5.9C21.2,13.2,23.5,14,25.7,14.4z"/>
</svg>
