<?xml version="1.0" encoding="utf-8"?>
<!-- Generator: Adobe Illustrator 19.0.0, SVG Export Plug-In . SVG Version: 6.00 Build 0)  -->
<svg version="1.1" id="Layer_1" xmlns="http://www.w3.org/2000/svg" xmlns:xlink="http://www.w3.org/1999/xlink" x="0px" y="0px"
	 viewBox="0 0 15.5 6.9" style="enable-background:new 0 0 15.5 6.9;" xml:space="preserve">
<style type="text/css">
	.st0{fill:#4C0C0A;}
	.st1{fill:#EDA672;}
</style>
<g id="XMLID_15_">
	<path id="XMLID_18_" class="st0" d="M2.7,5.5C4.1,3.1,5.4,2.3,7.4,2c1.6-0.2,4,0.4,5.2,1.4c1.2,1,1.9,2.3,2.1,3
		C14.9,7,15.4,7,15.5,6.7c0-2.1-1.2-4.7-3.8-5.9C9-0.4,6-0.4,3.7,1.9C3,2.6,2.2,4.3,2,4.9C2,5.3,2.5,5.9,2.7,5.5z"/>
	<path id="XMLID_17_" class="st0" d="M3.1,4.3C2,4.2,1,4.1,0,3.9c0.8,0.7,1.6,1.5,2.6,1.7C2.7,5,2.6,4.7,3.1,4.3z"/>
	<path id="XMLID_16_" class="st1" d="M14.2,6.8c-0.7-0.7-1.5-1.2-2.5-1.4c-0.9-0.2-2-0.1-2.8,0.3C10.7,5.7,12.5,6.1,14.2,6.8z"/>
</g>
</svg>
