<?xml version="1.0" encoding="utf-8"?>
<!-- Generator: Adobe Illustrator 19.0.0, SVG Export Plug-In . SVG Version: 6.00 Build 0)  -->
<svg version="1.1" id="Layer_1" xmlns="http://www.w3.org/2000/svg" xmlns:xlink="http://www.w3.org/1999/xlink" x="0px" y="0px"
	 viewBox="0 0 20.9 11.7" style="enable-background:new 0 0 20.9 11.7;" xml:space="preserve">
<style type="text/css">
	.st0{fill:#4C0C0A;}
	.st1{fill:#C46858;}
	.st2{fill:#FFFFFF;}
	.st3{fill:#B2543F;}
</style>
<path class="st0" d="M18.3,1.6c0,0.1,0.9,0,1,0c0.3,0,0.6-0.1,0.7-0.4c0.1-0.1,0.1-0.2,0.1-0.4c0-0.1,0.1-0.2,0.2-0.3
	c0.1,0,0.2,0.1,0.3,0.2c0.1,0.1,0.1,0.2,0.1,0.3c0,0.2,0,0.3,0.1,0.5c0,0.1,0,0.3,0,0.4c-0.1,0.1-0.2,0.2-0.3,0.2
	c-0.2-0.1-0.2-0.3-0.4-0.4c-0.1,0-0.2,0-0.3,0.1c-0.4,0.3-0.8,0.8-1,1.2c-0.1,0.2-0.2,0.5-0.4,0.7c-0.1,0.1-0.1,0.3-0.2,0.4
	c0,0.1-0.2,0.3-0.2,0.4C18.2,3.7,18.3,2.7,18.3,1.6z"/>
<path class="st0" d="M3.1,1.6c0,0.1-1.5,0-1.6,0C1.3,1.6,1,1.5,0.8,1.2C0.8,1.1,0.8,1,0.7,0.9c0-0.1-0.1-0.2-0.2-0.3
	c-0.1,0-0.2,0.1-0.3,0.2S0.1,1,0.1,1.1c0,0.2,0,0.3-0.1,0.5c0,0.1,0,0.3,0,0.4c0.1,0.1,0.2,0.2,0.3,0.2c0.2-0.1,0.2-0.3,0.4-0.4
	c0.1,0,0.2,0,0.3,0.1c0.4,0.3,0.8,0.8,1,1.2c0.1,0.2,0.2,0.5,0.4,0.7c0.1,0.1,0.1,0.3,0.2,0.4c0,0.1,0.2,0.3,0.2,0.4
	C2.7,3.7,3.2,2.6,3.1,1.6z"/>
<g>
	<g>
		<g>
			<path class="st1" d="M17.4,6.7c0,0-0.7,4.6-5.7,5c-7,0.5-8.5-5.5-8.5-5.5L17.4,6.7z"/>
		</g>
	</g>
	<g>
		<g>
			<path class="st1" d="M17.6,1.6c0,0-1.1-1.6-6.9-1.6C7.1,0,3.3,1.6,3.3,1.6H17.6z"/>
		</g>
	</g>
	<g>
		<g>
			<path class="st0" d="M2,3.2C2.2,3.8,3.1,6,3.3,6.2c0.4,0.6,0.9,1.1,1.5,1.6C6.1,8.9,8,9.7,10.9,9.7c1.4,0,2.5-0.2,3.5-0.6
				c1.5-0.6,2.5-1.5,3.1-2.7c0.7-1.4,1-1.9,1.4-3.2c0.2-0.5,0.3-1.3-0.1-1.6c-0.1,0-0.8-0.1-1.1-0.1H3.3C2.5,1.6,1.7,2.4,2,3.2z"/>
		</g>
	</g>
	<g>
		<g>
			<path class="st2" d="M16.5,3.8c1-0.4,1.2-1.1,1.2-2.2l-14.4,0c0,1.1,0.4,1.8,1.2,2.2C6.6,4.4,13.5,5,16.5,3.8z"/>
		</g>
	</g>
	<g>
		<g>
			<path class="st3" d="M4.7,7.8C6.1,8.9,8,9.7,10.9,9.7c1.4,0,2.5-0.2,3.5-0.6c-0.2-0.9-1.7-2.6-5.2-2.9C5.5,5.9,4.8,7.7,4.7,7.8z"
				/>
		</g>
	</g>
</g>
</svg>
