<?xml version="1.0" encoding="utf-8"?>
<!-- Generator: Adobe Illustrator 19.0.0, SVG Export Plug-In . SVG Version: 6.00 Build 0)  -->
<svg version="1.1" id="Layer_1" xmlns="http://www.w3.org/2000/svg" xmlns:xlink="http://www.w3.org/1999/xlink" x="0px" y="0px"
	 viewBox="0 0 19.4 3.3" style="enable-background:new 0 0 19.4 3.3;" xml:space="preserve">
<style type="text/css">
	.st0{fill:#4C0C0A;}
</style>
<path class="st0" d="M18.7,2.9c0.1,0,0.2,0,0.3,0c0.1-0.5,0.2-0.9,0.3-1.4c0-0.1,0.1-0.2,0-0.3c0-0.1-0.1-0.2-0.2-0.2
	c-0.2-0.1-0.4,0.3-0.7,0.3c-0.3,0.1-0.5,0-0.7-0.1c-0.7-0.1-3.6-0.9-6.4-1.1C8.6-0.2,5.7,0.2,3.1,1.2C2.5,1.5,1.5,1.8,0.8,1.8
	C0.4,1.7,0.2,1,0,1.2c0,1,0.1,2.4,0.5,2.1c0.3-0.2,0.1-0.1,0.2-0.5C5.9,0.8,11.5,0,17.9,2.1C18.2,2.3,18.8,2.5,18.7,2.9z"/>
</svg>
