<?xml version="1.0" encoding="utf-8"?>
<!-- Generator: Adobe Illustrator 19.0.0, SVG Export Plug-In . SVG Version: 6.00 Build 0)  -->
<svg version="1.1" id="Layer_1" xmlns="http://www.w3.org/2000/svg" xmlns:xlink="http://www.w3.org/1999/xlink" x="0px" y="0px"
	 viewBox="0 0 63.9 73.6" style="enable-background:new 0 0 63.9 73.6;" xml:space="preserve">
<style type="text/css">
	.st0{fill:#FCC490;}
	.st1{fill:#D3D3D3;}
	.st2{fill:#EDA672;}
</style>
<g id="XMLID_14_">
	<path class="st0" d="M5,26.6C3.9,34,6.1,56.4,11.7,63.8c2.3,3.1,4.7,4.6,9,5.8c2.9,2.5,9,4,12,4c3.2,0,9.8-2,11.7-4
		c3.4-0.9,7.5-3.3,9.2-6.4c6.2-11.2,7-37.8,5.6-46c-1.4-8.3-16.9-19-29.7-16.9C14.3,2.7,7.8,8.1,5,26.6z"/>
	<path class="st0" d="M57.2,41.5c0.6-0.8,1.4-1.5,2.4-1.8c1-0.3,2.1-0.2,2.9,0.4c1.1,0.8,1.5,2.1,1.4,3.4c-0.1,1.3-0.6,2.5-1.1,3.7
		c-0.8,1.8-1.6,3.6-3.2,4.7c-1.5,1.2-3.9,1.4-5.3,0L57.2,41.5z"/>
	<path class="st0" d="M6.7,41.5c-0.6-0.8-1.4-1.5-2.4-1.8c-1-0.3-2.1-0.2-2.9,0.4c-1.1,0.8-1.5,2.1-1.4,3.4c0.1,1.3,0.6,2.5,1.1,3.7
		c0.8,1.8,1.6,3.6,3.2,4.7c1.5,1.2,3.9,1.4,5.3,0L6.7,41.5z"/>
	<path class="st1" d="M5.9,43.7c0,0-2.5-9-2.6-17.3c0-3.6,3.3-16,4.9-16c1.2,0,6.6,6,6.9,7.6c0.2,1.1-7.3,14.7-7.2,16.6
		c0.3,6.9,0.3,10.1,0.3,10.1L5.9,43.7z"/>
	<path class="st1" d="M58.7,43.7c0,0,2.5-9,2.6-17.3c0-3.6-3.3-16-4.9-16c-1.2,0-6.6,6-6.9,7.6c-0.2,1.1,7.3,14.7,7.2,16.6
		c-0.3,6.9-0.3,10.1-0.3,10.1L58.7,43.7z"/>
	<path class="st2" d="M50.3,47.3c0.8,0.6,1.6,1.2,2.4,1.8c0-0.1,0-0.2,0-0.3C52.2,47.9,51.2,47.4,50.3,47.3z"/>
	<path class="st2" d="M54.3,47.3c-0.3-0.6-0.9-1.1-1.5-1.2c-0.7-0.2-1.4-0.1-2,0.3C52,46.4,53.2,46.7,54.3,47.3z"/>
	<path class="st2" d="M13.9,47.3c-0.8,0.6-1.6,1.2-2.4,1.8c0-0.1,0-0.2,0-0.3C12,47.9,12.9,47.4,13.9,47.3z"/>
	<path class="st2" d="M9.9,47.4c0.3-0.6,0.8-1.1,1.4-1.4c0.6-0.2,1.4-0.2,2,0.2C12.1,46.3,10.9,46.8,9.9,47.4z"/>
</g>
</svg>
