<?xml version="1.0" encoding="utf-8"?>
<!-- Generator: Adobe Illustrator 19.0.0, SVG Export Plug-In . SVG Version: 6.00 Build 0)  -->
<svg version="1.1" id="Layer_1" xmlns="http://www.w3.org/2000/svg" xmlns:xlink="http://www.w3.org/1999/xlink" x="0px" y="0px"
	 viewBox="0 0 28 9.9" style="enable-background:new 0 0 28 9.9;" xml:space="preserve">
<style type="text/css">
	.st0{fill:#D3D3D3;}
	.st1{fill:#EDA672;}
</style>
<g id="XMLID_1_">
	<path class="st0" d="M14.4,0.9c0,0-7.4-0.5-7.8,0.1C6.1,1.5-0.2,7.8,0,8c0.6,0.5,1.9,0.5,2.6,0.6c0.5,0.1,1.7,0.6,2.1,0.2
		c0.2-0.2,0.3-0.8,0.5-1c0.2-0.4,0.5-0.7,0.8-1c0,0.8-0.2,1.7-0.4,2.4c0.3-0.2,0.7-0.4,1-0.6C6.4,8.8,6.5,9,6.6,9.1
		c0.1,0.1,0.3,0.1,0.5,0.2c2.2,0.4,4.4,0.6,6.7,0.6c1.5,0,3-0.1,4.5-0.3c0.6-0.1,1.9,0,2.4-0.3c0.5-0.3,0.3-1.2,0.3-1.7
		c-0.1,0.6,0.2,1.3,0.6,1.6c0.1-0.2,0.2-0.3,0.2-0.5C21.9,8.9,22.3,9,22.5,9c1.2,0,2.5-0.5,3.7-0.7c0.2,0,1.6-0.5,1.7-0.4
		c0,0-6.6-7.2-7.2-7.3C20.3,0.6,14.4,0.9,14.4,0.9z"/>
	<path class="st1" d="M17.7,0.5c-1.4-0.7-4.5-0.6-7-0.2C10.4,0.4,10,0.4,9.8,0.6S9.6,1.1,9.7,1.4c0.7,0.7,1.6,1.4,2.8,2
		c0.4,0.2,0.8,0.4,1.3,0.4c0.7,0,1.3-0.4,1.8-0.8C16.5,2.3,18.2,1.3,17.7,0.5z"/>
</g>
</svg>
