<?xml version="1.0" encoding="utf-8"?>
<!-- Generator: Adobe Illustrator 19.0.0, SVG Export Plug-In . SVG Version: 6.00 Build 0)  -->
<svg version="1.1" id="Layer_1" xmlns="http://www.w3.org/2000/svg" xmlns:xlink="http://www.w3.org/1999/xlink" x="0px" y="0px"
	 viewBox="0 0 16.4 13.1" style="enable-background:new 0 0 16.4 13.1;" xml:space="preserve">
<style type="text/css">
	.st0{fill:#FFFFFF;}
	.st1{fill:#4C0C0A;}
</style>
<g>
	<path class="st0" d="M4.7,1.8c-1.8,0.4-3.3,1.5-4,3.3c-0.4,1.1,0,5.1,1.7,6.6C3.1,12.3,4,12.9,5,13c1.7,0.2,4.3,0.3,5.7-0.8
		c1.2-1,1.9-2.5,2.1-4.1c0.2-1.2,0.3-2.5-0.3-3.6c-1-1.9-3.3-2.6-5.4-3.1L4.7,1.8z"/>
	<path class="st1" d="M9.2,9.9c1.2-1.5,1.3-3.5,0.3-5.1C9.1,4.2,8.6,3.7,8,3.4C7.3,3.1,6.5,3,5.8,3.2c-1.1,0.4-1.7,1.5-2,2.5
		c-0.4,1.7-0.1,3.6,1.4,4.7c0.6,0.5,1.4,0.8,2.2,0.6C8.2,10.9,8.8,10.4,9.2,9.9z"/>
	<path class="st1" d="M13.3,6.9C12.9,5,11.7,3.5,9.1,2.3c-1.6-0.7-3.7-0.7-5.3,0C2.7,2.7,1.5,3.9,0.9,5.6C0.6,6.1,0.1,6,0,5.7
		c0.2-3.2,3.1-5.1,5.1-5.5c3-0.6,6.4,0.6,8.3,3.5c0.6,0.9,0.8,1.8,0.8,2.5C14.2,7.1,13.5,7.4,13.3,6.9z"/>
	<path class="st1" d="M13.2,5.7c1.1,0.1,2.1,0.1,3.2,0.2c-0.9,0.6-1.9,1.2-3,1.2C13.4,6.5,13.6,6.2,13.2,5.7z"/>
</g>
</svg>
