<?xml version="1.0" encoding="utf-8"?>
<!-- Generator: Adobe Illustrator 19.0.0, SVG Export Plug-In . SVG Version: 6.00 Build 0)  -->
<svg version="1.1" id="Layer_1" xmlns="http://www.w3.org/2000/svg" xmlns:xlink="http://www.w3.org/1999/xlink" x="0px" y="0px"
	 viewBox="0 0 14.2 13.1" style="enable-background:new 0 0 14.2 13.1;" xml:space="preserve">
<style type="text/css">
	.st0{fill:#FFFFFF;}
	.st1{fill:#4C0C0A;}
</style>
<g>
	<path class="st0" d="M9.5,1.8c1.8,0.4,3.3,1.5,4,3.3c0.4,1.1,0,5.1-1.7,6.6c-0.7,0.6-1.7,1.2-2.6,1.3c-1.7,0.2-4.3,0.3-5.7-0.8
		c-1.2-1-1.9-2.5-2.1-4.1C1.2,6.9,1.1,5.6,1.7,4.5C2.7,2.6,5,1.9,7,1.4L9.5,1.8z"/>
	<path class="st1" d="M4.9,9.9C3.8,8.4,3.7,6.3,4.7,4.8c0.4-0.6,0.9-1.1,1.5-1.4C6.9,3.1,7.7,3,8.4,3.2c1.1,0.4,1.7,1.5,2,2.5
		c0.4,1.7,0.1,3.6-1.4,4.7c-0.6,0.5-1.4,0.8-2.2,0.6C6,10.9,5.4,10.4,4.9,9.9z"/>
	<path class="st1" d="M0.8,6.9C1.3,5,2.5,3.5,5.1,2.3c1.6-0.7,3.7-0.7,5.3,0c1.1,0.4,2.2,1.6,2.9,3.3c0.2,0.5,0.8,0.5,0.9,0.1
		C14,2.5,11.1,0.6,9.1,0.2c-3-0.6-6.4,0.6-8.3,3.5C0.3,4.6,0,5.5,0,6.2C0,7.1,0.7,7.4,0.8,6.9z"/>
</g>
</svg>
