<?xml version="1.0" encoding="utf-8"?>
<!-- Generator: Adobe Illustrator 19.0.0, SVG Export Plug-In . SVG Version: 6.00 Build 0)  -->
<svg version="1.1" id="Layer_1" xmlns="http://www.w3.org/2000/svg" xmlns:xlink="http://www.w3.org/1999/xlink" x="0px" y="0px"
	 viewBox="0 0 16.4 13.1" style="enable-background:new 0 0 16.4 13.1;" xml:space="preserve">
<style type="text/css">
	.st0{fill:#FFFFFF;}
	.st1{fill:#4C0C0A;}
</style>
<g id="XMLID_15_">
	<path id="XMLID_19_" class="st0" d="M11.8,1.8c1.8,0.4,3.3,1.5,4,3.3c0.4,1.1,0,5.1-1.7,6.6c-0.7,0.6-1.7,1.2-2.6,1.3
		c-1.7,0.2-4.3,0.3-5.7-0.8c-1.2-1-1.9-2.5-2.1-4.1C3.5,6.9,3.3,5.6,3.9,4.5c1-1.9,3.3-2.6,5.4-3.1L11.8,1.8z"/>
	<path id="XMLID_18_" class="st1" d="M6.7,10.4C5.3,8.7,5.2,6.2,6.4,4.3C6.8,3.6,7.5,3,8.3,2.6c0.8-0.4,1.8-0.5,2.6-0.2
		c1.4,0.5,2.1,1.8,2.4,3c0.5,2,0.1,4.3-1.7,5.7c-0.7,0.6-1.7,0.9-2.7,0.8C8,11.7,7.2,11.1,6.7,10.4z"/>
	<path id="XMLID_17_" class="st1" d="M3.1,6.9C3.5,5,4.8,3.5,7.4,2.3c1.6-0.7,3.7-0.7,5.3,0c1.1,0.4,2.2,1.6,2.9,3.3
		c0.2,0.5,0.8,0.5,0.9,0.1c-0.2-3.2-3.1-5.1-5.1-5.5c-3-0.6-6.4,0.6-8.3,3.5C2.5,4.6,2.2,5.5,2.2,6.2C2.2,7.1,3,7.4,3.1,6.9z"/>
	<path id="XMLID_16_" class="st1" d="M3.2,5.7C2.1,5.8,1.1,5.8,0,5.9c0.9,0.6,1.9,1.2,3,1.2C3,6.5,2.9,6.2,3.2,5.7z"/>
</g>
</svg>
