<?xml version="1.0" encoding="utf-8"?>
<!-- Generator: Adobe Illustrator 19.0.0, SVG Export Plug-In . SVG Version: 6.00 Build 0)  -->
<svg version="1.1" id="Layer_1" xmlns="http://www.w3.org/2000/svg" xmlns:xlink="http://www.w3.org/1999/xlink" x="0px" y="0px"
	 viewBox="0 0 13.5 6.9" style="enable-background:new 0 0 13.5 6.9;" xml:space="preserve">
<style type="text/css">
	.st0{fill:#4C0C0A;}
	.st1{fill:#EDA672;}
</style>
<g>
	<path class="st0" d="M12.8,5.5C11.4,3.1,10.1,2.3,8.1,2c-1.6-0.2-4,0.4-5.2,1.4c-1.2,1-1.9,2.3-2.1,3C0.6,7,0.1,7,0,6.7
		C0,4.6,1.2,2,3.8,0.8c2.7-1.2,5.7-1.2,8,1.1c0.7,0.7,1.5,2.4,1.6,3C13.5,5.3,13,5.9,12.8,5.5z"/>
	<path class="st1" d="M1.3,6.8c0.7-0.7,1.5-1.2,2.5-1.4c1-0.2,2-0.1,2.8,0.3C4.8,5.7,3,6.1,1.3,6.8z"/>
</g>
</svg>
