<?xml version="1.0" encoding="utf-8"?>
<!-- Generator: Adobe Illustrator 19.0.0, SVG Export Plug-In . SVG Version: 6.00 Build 0)  -->
<svg version="1.1" id="Layer_1" xmlns="http://www.w3.org/2000/svg" xmlns:xlink="http://www.w3.org/1999/xlink" x="0px" y="0px"
	 viewBox="0 0 62.5 63.1" style="enable-background:new 0 0 62.5 63.1;" xml:space="preserve">
<style type="text/css">
	.st0{fill:#FCC490;}
</style>
<path id="XMLID_14_" class="st0" d="M62.5,39.7c-0.1,1.3-0.5,2.5-1,3.6c-0.7,1.7-1.6,3.5-3.1,4.6c-1.3,1-3.3,1.3-4.7,0.4
	c-0.2,0.3-0.3,0.6-0.5,0.8c-5.4,8.3-16.4,14.2-21.3,14c-4.8-0.2-12-2.6-18.9-9.6c-1.5-1.5-2.7-3.5-3.8-5.8L9.3,48
	c-1.3,1.3-3.7,1.1-5.1,0c-1.5-1.1-2.3-2.9-3.1-4.6c-0.5-1.2-1-2.4-1-3.6c-0.1-1.3,0.4-2.6,1.4-3.4c0.8-0.6,1.9-0.7,2.8-0.4
	c0.6,0.2,1.2,0.5,1.6,1c-1.2-6.3-1.5-12.5-1-15.7C7.6,4.6,16.6,2.3,29.7,0.3c13.1-1.9,26.7,4.9,28.1,12.3c0.9,4.8,1.4,14.5-0.1,23.4
	c0.2-0.1,0.3-0.2,0.5-0.2c1-0.3,2-0.2,2.8,0.4C62.1,37,62.6,38.4,62.5,39.7z"/>
</svg>
