<?xml version="1.0" encoding="utf-8"?>
<!-- Generator: Adobe Illustrator 19.0.0, SVG Export Plug-In . SVG Version: 6.00 Build 0)  -->
<svg version="1.1" id="Layer_1" xmlns="http://www.w3.org/2000/svg" xmlns:xlink="http://www.w3.org/1999/xlink" x="0px" y="0px"
	 viewBox="0 0 19.4 3.3" style="enable-background:new 0 0 19.4 3.3;" xml:space="preserve">
<style type="text/css">
	.st0{fill:#4C0C0A;}
</style>
<path class="st0" d="M0.7,0.4c-0.1,0-0.2,0-0.3,0C0.3,0.9,0.2,1.4,0,1.9C0,2,0,2.1,0,2.2c0,0.1,0.1,0.2,0.2,0.2
	c0.2,0.1,0.4-0.3,0.7-0.3c0.3-0.1,0.5,0,0.7,0.1C2.3,2.3,5.2,3,8,3.3c2.8,0.2,5.7-0.1,8.3-1.2c0.6-0.2,1.6-0.6,2.3-0.5
	c0.4,0,0.6,0.8,0.8,0.6c0-1-0.1-2.4-0.5-2.1c-0.3,0.2-0.1,0.1-0.2,0.5C13.4,2.6,7.9,3.3,1.5,1.2C1.2,1.1,0.6,0.9,0.7,0.4z"/>
</svg>
