<?xml version="1.0" encoding="utf-8"?>
<!-- Generator: Adobe Illustrator 19.0.0, SVG Export Plug-In . SVG Version: 6.00 Build 0)  -->
<svg version="1.1" id="Layer_1" xmlns="http://www.w3.org/2000/svg" xmlns:xlink="http://www.w3.org/1999/xlink" x="0px" y="0px"
	 viewBox="0 0 23 10" style="enable-background:new 0 0 23 10;" xml:space="preserve">
<style type="text/css">
	.st0{fill:#4C0C0A;}
	.st1{fill:#FFFFFF;}
	.st2{fill:#B2543F;}
</style>
<g>
	<path class="st0" d="M20.2,1.1c0,0.1,1,0,1.1,0c0.3,0,0.6-0.1,0.8-0.4c0.1-0.1,0.1-0.3,0.1-0.4c0-0.1,0.1-0.3,0.3-0.3
		c0.1,0,0.3,0.1,0.3,0.2c0.1,0.1,0.1,0.2,0.1,0.4c0,0.2,0.1,0.4,0.1,0.6c0,0.2,0,0.3,0,0.5c-0.1,0.1-0.2,0.3-0.4,0.2
		c-0.2-0.1-0.2-0.4-0.4-0.4c-0.1,0-0.2,0.1-0.3,0.1c-0.4,0.4-0.8,0.8-1.1,1.4c-0.1,0.3-0.3,0.5-0.4,0.8c-0.1,0.1-0.2,0.3-0.2,0.4
		C20.1,4.2,20,4.4,20,4.5C20,3.4,20.1,2.2,20.2,1.1z"/>
	<path class="st0" d="M3.4,1.1c0,0.1-1.6,0-1.7,0C1.4,1.1,1.1,1,0.9,0.7C0.9,0.6,0.8,0.4,0.8,0.3C0.8,0.2,0.7,0,0.5,0
		C0.4,0,0.3,0.1,0.2,0.2C0.1,0.3,0.1,0.4,0.1,0.6C0.1,0.7,0,0.9,0,1.1c0,0.2,0,0.3,0,0.5c0.1,0.1,0.2,0.3,0.4,0.2
		c0.2-0.1,0.2-0.4,0.4-0.4c0.1,0,0.2,0.1,0.3,0.1c0.4,0.4,0.8,0.8,1.1,1.4c0.1,0.3,0.3,0.5,0.4,0.8c0.1,0.1,0.2,0.3,0.2,0.4
		C2.9,4.2,3,4.4,3,4.5C2.9,3.4,3.5,2.2,3.4,1.1z"/>
	<g>
		<g>
			<g>
				<path class="st0" d="M2.2,2.9c0.2,0.6,1.2,3,1.4,3.2c0.4,0.6,1,1.3,1.6,1.8C6.7,9.1,8.9,10,12,10c1.5,0,2.8-0.3,3.8-0.7
					c1.6-0.7,2.7-1.7,3.4-3c0.8-1.6,1.1-2.1,1.6-3.5c0.2-0.6,0.3-1.4-0.1-1.7c-0.1,0-0.9-0.1-1.2-0.1H3.7C2.7,1.1,1.9,2,2.2,2.9z"/>
			</g>
		</g>
		<g>
			<g>
				<path class="st1" d="M18.2,3.5c1.1-0.4,1.3-1.2,1.3-2.5l-15.9,0c0,1.2,0.5,2,1.3,2.4C7.3,4.2,14.9,4.8,18.2,3.5z"/>
			</g>
		</g>
		<g>
			<g>
				<path class="st2" d="M5.2,7.9C6.7,9.1,8.9,10,12,10c1.5,0,2.8-0.3,3.8-0.7c-0.2-1-1.8-2.9-5.7-3.2C6,5.8,5.3,7.8,5.2,7.9z"/>
			</g>
		</g>
	</g>
</g>
</svg>
