<?xml version="1.0" encoding="utf-8"?>
<!-- Generator: Adobe Illustrator 19.0.0, SVG Export Plug-In . SVG Version: 6.00 Build 0)  -->
<svg version="1.1" id="Layer_1" xmlns="http://www.w3.org/2000/svg" xmlns:xlink="http://www.w3.org/1999/xlink" x="0px" y="0px"
	 viewBox="0 0 13.3 10.4" style="enable-background:new 0 0 13.3 10.4;" xml:space="preserve">
<style type="text/css">
	.st0{fill:#4C0C0A;}
	.st1{fill:#AF3F3F;}
	.st2{fill:#FFFFFF;}
</style>
<g>
	<path class="st0" d="M12.4,9.1c-1.1,0.8-2.9,1.4-5.7,1.4c-3.2,0-5-0.7-6.1-1.7c-0.7-0.7-0.7-2.3-0.5-3.9C0.3,2.6,0.7,1.6,1.3,1
		C1.5,0.7,1.7,0.6,2,0.4c0.4-0.2,0.7-0.3,1-0.4c1.4-0.2,1.8,0.3,3.7,0.3c2,0,2.3-0.5,3.8-0.3c0.2,0,0.4,0.1,0.7,0.2
		C11.5,0.4,11.7,0.6,12,1c0.5,0.7,0.9,1.8,1.1,3.8C13.3,6.6,13.4,8.3,12.4,9.1z"/>
	<path class="st1" d="M2,8.9c0.8-1,2.2-1.7,3.7-1.9c1.6-0.2,3.2,0.1,4.4,0.8c0.5,0.3,1,0.8,0.9,1.2C8.2,9.6,5.4,9.8,2.6,9.6
		c-0.3,0-0.6-0.1-0.7-0.3C1.8,9.2,1.9,9,2,8.9z"/>
	<path class="st2" d="M12.4,9.1c-1.1,0.9-2.9,1.4-5.7,1.4c-3.2,0-5.1-0.6-6.1-1.7c0.1-0.1,0.2-0.5,0.3-0.6C1,8.1,1,8.1,1.1,8.1
		C1.2,8,1.4,7.9,1.5,7.9C2,7.8,2.6,8,3.1,8.1c2.4,0.6,5,0.4,7.5,0c0.4-0.1,0.9-0.2,1.3,0c0.1,0,0.1,0.1,0.2,0.1
		C12.1,8.3,12.4,8.9,12.4,9.1z"/>
	<path class="st2" d="M5.7,0.3C5.7,0.3,5.7,0.3,5.7,0.3C5.6,0.6,5.6,0.9,5.5,1.1C5.4,1.6,5,1.9,4.5,1.9c-0.2,0-0.4,0-0.6-0.1
		C3.1,1.7,2.1,1.5,1.5,1.1C1.4,1.1,1.4,1,1.3,1c0.1-0.2,0.3-0.3,0.5-0.4c0,0,0.1-0.1,0.1-0.1c0,0,0.1,0,0.1-0.1c0,0,0,0,0,0
		c0,0,0,0,0.1,0c0.3-0.2,0.6-0.3,0.8-0.3C4.1-0.1,4.5,0.2,5.7,0.3z"/>
	<path class="st2" d="M12,1c-0.1,0.1-0.1,0.2-0.2,0.2c-0.4,0.2-0.9,0.5-1.4,0.5C9.7,1.8,9.1,1.8,8.5,1.9c-0.5,0-0.9-0.3-1-0.8
		C7.5,0.9,7.4,0.6,7.4,0.3c1.4-0.1,1.8-0.4,3.1-0.2c0.2,0,0.4,0.1,0.7,0.2c0,0,0.1,0,0.1,0.1c0,0,0,0,0,0c0.1,0,0.1,0.1,0.2,0.1
		c0,0,0,0,0,0C11.7,0.6,11.8,0.8,12,1z"/>
</g>
</svg>
