<?xml version="1.0" encoding="utf-8"?>
<!-- Generator: Adobe Illustrator 19.0.0, SVG Export Plug-In . SVG Version: 6.00 Build 0)  -->
<svg version="1.1" id="Layer_1" xmlns="http://www.w3.org/2000/svg" xmlns:xlink="http://www.w3.org/1999/xlink" x="0px" y="0px"
	 viewBox="0 0 13.2 15.1" style="enable-background:new 0 0 13.2 15.1;" xml:space="preserve">
<style type="text/css">
	.st0{fill:#E88567;}
	.st1{fill:#4C0C0A;}
	.st2{fill:#B2543F;}
	.st3{fill:#FFFFFF;}
</style>
<g>
	<path class="st0" d="M0.6,4.1c0,0,0.6-2.5,1.9-3.1c1.3-0.7,3.1-1,4.2-1c1.1,0,3.5,0.5,4.4,1.1c1.3,0.9,1.6,3,1.6,3L0.6,4.1z"/>
	<path class="st0" d="M0,9.5c0,0,0,2.8,1.2,4c1.1,1.1,2.5,1.6,5.4,1.7c2.9,0,4.9-0.9,5.5-1.5c1.1-1.1,1.1-4.4,1.1-4.4L0,9.5z"/>
	<path class="st1" d="M12.4,11.9c-1.1,1-2.9,1.6-5.7,1.6c-3.2,0-5-0.8-6.1-2C-0.1,10.7-0.1,8.9,0.1,7c0.2-2.5,0.6-3.7,1.2-4.4
		C1.5,2.3,1.7,2.1,2,1.9c0.4-0.3,0.7-0.4,1-0.4c1.4-0.2,1.8,0.3,3.7,0.3c1.9,0,2.3-0.5,3.8-0.3c0.2,0,0.4,0.1,0.7,0.3
		c0.3,0.2,0.6,0.4,0.8,0.8c0.5,0.8,0.9,2.1,1.1,4.4C13.3,9.1,13.4,11,12.4,11.9z"/>
	<path class="st2" d="M2,11.7c0.7-1.1,2.2-1.9,3.7-2.1c1.6-0.2,3.2,0.1,4.4,1c0.5,0.4,1,0.9,0.9,1.4c-2.7,0.6-5.6,0.7-8.4,0.5
		c-0.3,0-0.6-0.1-0.7-0.3C1.8,12,1.9,11.8,2,11.7z"/>
	<path class="st3" d="M11.9,2.5c-0.1,0.1-0.1,0.2-0.2,0.2c-0.4,0.3-0.9,0.6-1.4,0.6C8.1,3.7,6,3.8,3.9,3.5C3.1,3.4,2.1,3.2,1.5,2.7
		C1.4,2.7,1.4,2.6,1.3,2.5c0.1-0.2,0.3-0.3,0.5-0.5c0,0,0.1-0.1,0.1-0.1c0,0,0.1,0,0.1-0.1c0,0,0,0,0,0c0,0,0,0,0.1,0
		c0.3-0.2,0.6-0.3,0.8-0.3c1.4-0.2,1.8,0.3,3.7,0.3c1.9,0,2.3-0.5,3.8-0.3c0.2,0,0.4,0.1,0.7,0.3c0,0,0.1,0,0.1,0.1c0,0,0,0,0,0
		c0.1,0,0.1,0.1,0.2,0.1c0,0,0,0,0,0C11.6,2.2,11.8,2.3,11.9,2.5z"/>
	<path class="st3" d="M12.4,11.9c-1.1,1-2.9,1.6-5.7,1.6c-3.2,0-5.1-0.7-6.1-2c0.1-0.1,0.2-0.2,0.3-0.3c0.1,0,0.1-0.1,0.2-0.1
		c0.1-0.1,0.3-0.1,0.4-0.2C2,10.8,2.5,11,3.1,11.1c2.4,0.7,5,0.5,7.5-0.1c0.4-0.1,0.9-0.2,1.3,0c0.1,0,0.1,0.1,0.2,0.2
		c0,0.1,0.1,0.1,0.1,0.2C12.3,11.6,12.3,11.7,12.4,11.9z"/>
</g>
</svg>
