<?xml version="1.0" encoding="utf-8"?>
<!-- Generator: Adobe Illustrator 19.0.0, SVG Export Plug-In . SVG Version: 6.00 Build 0)  -->
<svg version="1.1" id="Layer_1" xmlns="http://www.w3.org/2000/svg" xmlns:xlink="http://www.w3.org/1999/xlink" x="0px" y="0px"
	 viewBox="0 0 15.3 2.8" style="enable-background:new 0 0 15.3 2.8;" xml:space="preserve">
<style type="text/css">
	.st0{fill:#EDA672;}
</style>
<path class="st0" d="M14.7,2.4c0.1,0,0.2,0,0.3,0c0.1-0.4,0.3-0.9,0.3-1.3c0-0.1,0-0.2,0-0.2c0-0.1-0.1-0.2-0.1-0.2
	c-0.2-0.1-0.4,0.2-0.5,0.2c-0.2,0.1-0.4,0-0.6-0.1c-0.6-0.1-2.8-0.7-5-0.9C6.8-0.1,4.6,0.2,2.5,1C2,1.1,1.3,1.4,0.7,1.4
	c-0.3,0-0.5-0.6-0.6-0.4c-0.3,0.7,0.1,2,0.4,1.8C0.7,2.6,0.7,2.3,0.7,2c4.1-1.6,8.4-2,13.3-0.4C14.3,1.7,14.8,2.1,14.7,2.4z"/>
</svg>
