<?xml version="1.0" encoding="utf-8"?>
<!-- Generator: Adobe Illustrator 19.0.0, SVG Export Plug-In . SVG Version: 6.00 Build 0)  -->
<svg version="1.1" id="Layer_1" xmlns="http://www.w3.org/2000/svg" xmlns:xlink="http://www.w3.org/1999/xlink" x="0px" y="0px"
	 viewBox="0 0 16.3 13.1" style="enable-background:new 0 0 16.3 13.1;" xml:space="preserve">
<style type="text/css">
	.st0{fill:#FFFFFF;}
	.st1{fill:#4C0C0A;}
</style>
<g id="XMLID_15_">
	<g id="XMLID_17_">
		<path id="XMLID_20_" class="st0" d="M11.6,1.8c2.8,0.6,4.1,1.9,3.7,6.3c-0.1,0.7-0.2,1.8-0.7,2.4c-0.5,0.5-1.4,1-2.1,1.3
			c-1.8,0.9-4.3,2-6.2,0.9c-1.7-1-2.5-2.7-2.8-4.5C3.4,6.9,3.2,5.6,3.8,4.5c1-1.9,3.3-2.6,5.4-3.1L11.6,1.8z"/>
		<path id="XMLID_19_" class="st1" d="M8.2,9C7.6,8.2,7.5,7,8,6.1c0.2-0.3,0.5-0.6,0.8-0.8C9.2,5.1,9.6,5.1,10,5.2
			c0.6,0.2,0.9,0.8,1,1.4c0.2,0.9,0,2-0.7,2.7C10,9.6,9.6,9.8,9.1,9.7C8.7,9.6,8.4,9.3,8.2,9z"/>
		<path id="XMLID_18_" class="st1" d="M3,6.9C3.4,5,4.6,3.5,7.3,2.3c1.6-0.7,3.7-0.7,5.3,0c1.1,0.4,2.2,1.6,2.9,3.3
			c0.2,0.5,0.8,0.5,0.9,0.1c-0.2-3.2-3.1-5.1-5.1-5.5C8.2-0.5,4.8,0.8,3,3.7C2.4,4.6,2.1,5.5,2.1,6.2C2.1,7.1,2.9,7.4,3,6.9z"/>
	</g>
	<path id="XMLID_16_" class="st1" d="M3.2,5.7C2.1,5.8,1.1,5.9,0,5.9c0.9,0.6,1.9,1.2,3,1.2C3,6.5,2.9,6.2,3.2,5.7z"/>
</g>
</svg>
