<?xml version="1.0" encoding="utf-8"?>
<!-- Generator: Adobe Illustrator 19.0.0, SVG Export Plug-In . SVG Version: 6.00 Build 0)  -->
<svg version="1.1" id="Layer_1" xmlns="http://www.w3.org/2000/svg" xmlns:xlink="http://www.w3.org/1999/xlink" x="0px" y="0px"
	 viewBox="0 0 16.3 13.1" style="enable-background:new 0 0 16.3 13.1;" xml:space="preserve">
<style type="text/css">
	.st0{fill:#FFFFFF;}
	.st1{fill:#4C0C0A;}
</style>
<g>
	<g>
		<path class="st0" d="M4.7,1.8C1.9,2.4,0.6,3.6,1,8.1c0.1,0.7,0.2,1.8,0.7,2.4c0.5,0.5,1.4,1,2.1,1.3c1.8,0.9,4.3,2,6.2,0.9
			c1.7-1,2.5-2.7,2.8-4.5c0.2-1.2,0.3-2.5-0.3-3.6c-1-1.9-3.3-2.6-5.4-3.1L4.7,1.8z"/>
		<path class="st1" d="M8.1,9c0.6-0.8,0.7-2,0.1-2.9C8.1,5.8,7.8,5.5,7.5,5.3C7.1,5.1,6.7,5.1,6.3,5.2c-0.6,0.2-0.9,0.8-1,1.4
			c-0.2,0.9,0,2,0.7,2.7c0.3,0.3,0.8,0.4,1.2,0.4C7.6,9.6,7.9,9.3,8.1,9z"/>
		<path class="st1" d="M13.3,6.9C12.9,5,11.7,3.5,9.1,2.3c-1.6-0.7-3.7-0.7-5.3,0C2.7,2.7,1.5,3.9,0.9,5.6C0.6,6.1,0.1,6,0,5.7
			c0.2-3.2,3.1-5.1,5.1-5.5c3-0.6,6.4,0.6,8.3,3.5c0.6,0.9,0.8,1.8,0.8,2.5C14.2,7.1,13.5,7.4,13.3,6.9z"/>
	</g>
	<path class="st1" d="M13.1,5.7c1.1,0.1,2.1,0.1,3.2,0.2c-0.9,0.6-1.9,1.2-3,1.2C13.3,6.5,13.5,6.2,13.1,5.7z"/>
</g>
</svg>
