<?xml version="1.0" encoding="utf-8"?>
<!-- Generator: Adobe Illustrator 19.0.0, SVG Export Plug-In . SVG Version: 6.00 Build 0)  -->
<svg version="1.1" id="Layer_1" xmlns="http://www.w3.org/2000/svg" xmlns:xlink="http://www.w3.org/1999/xlink" x="0px" y="0px"
	 viewBox="-239 249.7 19.4 3.3" style="enable-background:new -239 249.7 19.4 3.3;" xml:space="preserve">
<style type="text/css">
	.st0{fill:#EDA672;}
</style>
<path class="st0" d="M-237.5,251.9c6.4-2.1,11.9-1.4,17.2,0.6c0.1,0.4-0.1,0.3,0.2,0.5c0.4,0.3,0.5-1.1,0.5-2.1
	c-0.2-0.2-0.4,0.6-0.8,0.6c-0.7,0.1-1.7-0.3-2.3-0.5c-2.6-1.1-5.5-1.4-8.3-1.2c-2.8,0.3-5.7,1-6.4,1.1c-0.2,0.1-0.4,0.2-0.7,0.1
	c-0.3,0-0.5-0.4-0.7-0.3c-0.1,0-0.2,0.1-0.2,0.2c0,0.1,0,0.2,0,0.3c0.2,0.5,0.3,1,0.4,1.5c0.1,0,0.2,0,0.3,0
	C-238.4,252.2-237.8,252-237.5,251.9z"/>
</svg>
