<?xml version="1.0" encoding="utf-8"?>
<!-- Generator: Adobe Illustrator 19.0.0, SVG Export Plug-In . SVG Version: 6.00 Build 0)  -->
<svg version="1.1" id="Layer_1" xmlns="http://www.w3.org/2000/svg" xmlns:xlink="http://www.w3.org/1999/xlink" x="0px" y="0px"
	 viewBox="0 0 65 77.9" style="enable-background:new 0 0 65 77.9;" xml:space="preserve">
<style type="text/css">
	.st0{fill:#FCC490;}
	.st1{fill:#EF9A60;}
</style>
<g id="XMLID_1_">
	<path class="st0" d="M5.2,35.8c-1.1,6.6,1.2,25.3,8.1,32.4s14.1,9.5,18.9,9.6C37,78,48,72.2,53.5,63.9c6.6-10,6-29.1,4.6-36.5
		C56.8,20,43.1,13.1,30,15.1C16.9,17,7.9,19.3,5.2,35.8z"/>
	<path class="st0" d="M56.2,52.4c0.6-0.8,1.4-1.5,2.3-1.8c1-0.3,2-0.2,2.8,0.4c1,0.7,1.5,2.1,1.4,3.4c-0.1,1.3-0.5,2.5-1,3.6
		c-0.7,1.7-1.6,3.5-3.1,4.6c-1.5,1.1-3.8,1.4-5.1,0L56.2,52.4z"/>
	<path class="st0" d="M6.9,52.4c-0.6-0.8-1.4-1.5-2.3-1.8c-1-0.3-2-0.2-2.8,0.4c-1,0.7-1.5,2.1-1.4,3.4c0.1,1.3,0.5,2.5,1,3.6
		c0.7,1.7,1.6,3.5,3.1,4.6c1.5,1.1,3.8,1.4,5.1,0L6.9,52.4z"/>
	<path class="st1" d="M6.5,26.3c-0.5-2.2-1-4.4-0.8-6.6c0.2-2.2,1.4-4.5,3.4-5.4c2-1,4.8-0.2,5.6,1.8C12.4,10.7,14.8,3.8,19.9,1
		c1.5-0.8,3.3-1.3,4.9-0.8c2.4,0.7,3.8,3.2,4.4,5.6s0.8,5,2,7.2c0.7-1.8,1.9-3.5,3.6-4.4c1.7-0.9,3.9-1,5.5,0.2
		c1.5,1.2,1.9,3.7,0.6,5.1c1.1-1.6,2.7-2.8,4.4-3.8c1.7-1,3.6-1.7,5.5-1.6c1.9,0.1,3.9,1.2,4.6,3c0.7,1.8-0.4,4.2-2.3,4.5
		c1.9-2.2,5.4-2.8,7.9-1.3c2.5,1.4,4,4.5,3.6,7.4s-2.3,5.5-4.8,6.9c1.1-1.2,3.1-0.9,4.2,0.3c1,1.2,1.2,3,0.8,4.5
		c-0.4,1.5-5.5,17-7.9,22.1c-0.4-7.5-1.5-16.1-2.9-23.5c-15.6,0-31.7,0-46.1-5.9c0.4,7.8,0.5,21.3-0.8,29C4.7,50.1,1.8,39,0.5,33.3
		c-0.5-2.2-0.9-4.8,0.4-6.7C2.1,24.6,5.5,24.2,6.5,26.3z"/>
</g>
</svg>
