<?xml version="1.0" encoding="utf-8"?>
<!-- Generator: Adobe Illustrator 19.0.0, SVG Export Plug-In . SVG Version: 6.00 Build 0)  -->
<svg version="1.1" id="Layer_1" xmlns="http://www.w3.org/2000/svg" xmlns:xlink="http://www.w3.org/1999/xlink" x="0px" y="0px"
	 viewBox="0 0 13.5 6.9" style="enable-background:new 0 0 13.5 6.9;" xml:space="preserve">
<style type="text/css">
	.st0{fill:#4C0C0A;}
	.st1{fill:#EDA672;}
</style>
<g>
	<path class="st0" d="M0.7,5.5C2.1,3.1,3.4,2.3,5.3,2c1.6-0.2,4,0.4,5.2,1.4c1.2,1,1.9,2.3,2.1,3C12.8,7,13.3,7,13.5,6.7
		c0-2.1-1.2-4.7-3.8-5.9C7-0.4,4-0.4,1.6,1.9C1,2.6,0.1,4.3,0,4.9C-0.1,5.3,0.4,5.9,0.7,5.5z"/>
	<path class="st1" d="M12.2,6.8c-0.7-0.7-1.5-1.2-2.5-1.4c-1-0.2-2-0.1-2.8,0.3C8.7,5.7,10.5,6.1,12.2,6.8z"/>
</g>
</svg>
