<?xml version="1.0" encoding="utf-8"?>
<!-- Generator: Adobe Illustrator 19.0.0, SVG Export Plug-In . SVG Version: 6.00 Build 0)  -->
<svg version="1.1" id="Layer_1" xmlns="http://www.w3.org/2000/svg" xmlns:xlink="http://www.w3.org/1999/xlink" x="0px" y="0px"
	 viewBox="0 0 80.9 98.3" style="enable-background:new 0 0 80.9 98.3;" xml:space="preserve">
<style type="text/css">
	.st0{fill:#7C5133;}
	.st1{fill:#FCC490;}
</style>
<g id="XMLID_1_">
	<path id="XMLID_4_" class="st0" d="M76.7,85.1c3.5-0.2,5.4-5.1,3.5-8c-1.9-3-5-4.1-8.2-2.7c1.2-14,2.6-25.8,3.8-39.8
		c0.7-7.4-2.1-16.2-6.4-22.2C65.3,6.9,59.4,0,47.7,0c-5.8,0-16,3.2-21.2,5.6c-7,3.3-13.2,8.2-17.7,14.5C3.6,27.5,1.9,32,3.5,45.7
		c1.1,8.9,4,18.5,5.4,26.6C4.5,72-0.5,76.8,0,81.2c0.6,4.4,4.7,7.8,9.1,8.4C6.7,90,6,93.5,7.5,95.4c1.5,1.9,4.2,2.4,6.7,2.3
		c5-0.1,10-2.2,13.7-5.6c4.2,5,11.5,7.2,17.8,5.5c2.2-0.6,4.2-1.6,6.5-1.9c3-0.3,5.8,0.8,8.8,1.4c4.6,0.9,9.4,0.5,13.7-1.3
		c2.4-1,4.9-2.6,5.7-5.1C81.1,88.3,79.3,85,76.7,85.1z"/>
	<path id="XMLID_3_" class="st1" d="M15.5,30.3c-1.1,7.2,1.2,27.7,8.1,35.4c6.9,7.7,14.1,10.3,18.9,10.5c4.8,0.2,15.8-6.2,21.3-15.3
		c6.6-11,6-31.8,4.6-39.9C67.1,13,53.4,5.5,40.4,7.6C27.3,9.7,18.2,12.2,15.5,30.3z"/>
	<path id="XMLID_2_" class="st0" d="M55.9,18.6c-5.6,8-13.2,14.6-22,19c1-1.9,2-3.8,3-5.7c-8,4.8-16.4,8.9-25.1,12.3
		c-3.2-8.2-1.6-18,3.4-25.2c5-7.3,13.2-12.1,21.9-13.8c10.2-2.1,21.8,0.4,28.5,8.3c3.9,4.6,5.8,10.5,6.5,16.5
		c0.7,5.9-1.2,30.4-1.7,36.4C66.9,57.2,56.6,30.1,55.9,18.6z"/>
</g>
</svg>
