<?xml version="1.0" encoding="utf-8"?>
<!-- Generator: Adobe Illustrator 19.0.0, SVG Export Plug-In . SVG Version: 6.00 Build 0)  -->
<svg version="1.1" id="Layer_1" xmlns="http://www.w3.org/2000/svg" xmlns:xlink="http://www.w3.org/1999/xlink" x="0px" y="0px"
	 viewBox="0 0 87.9 75.7" style="enable-background:new 0 0 87.9 75.7;" xml:space="preserve">
<style type="text/css">
	.st0{fill:#FEDDA7;}
	.st1{fill:#FCC490;}
	.st2{fill:#9AC1C0;}
</style>
<g>
	<path class="st0" d="M70.9,49.4C70.1,53.1,59.4,63.8,54.2,65c-5.1,1.1-10.4,2.2-15.6,1.6c-8.2-0.9-15.8-6-20.3-13.2
		c-4.5-7.2-4.7-15.5-3.1-23.9c0.8-4.4,2.5-8.6,5.4-11.9c4.3-4.8,11.1-7.7,17.3-6.6c1.5,0.3,4.4,1,4.7,1c0.4,0,2-0.8,4.4-1.3
		c7-1.3,16.3,0.8,20.7,6.6c2.6,3.3,4,7.1,4.7,11.3C73.5,34.8,72.6,41.6,70.9,49.4z"/>
	<path class="st1" d="M16.6,33.6C15.6,40.3,17.8,59,24.7,66c6.9,7,14.1,9.5,18.9,9.6c4.8,0.2,15.8-5.7,21.3-14
		c6.6-10,6-29.1,4.6-36.5c-1.3-7.4-15-14.3-28.1-12.3C28.4,14.8,19.3,17.1,16.6,33.6z"/>
	<path class="st1" d="M67.6,50.2c0.6-0.8,1.4-1.5,2.3-1.8c1-0.3,2-0.2,2.8,0.4c1,0.7,1.5,2.1,1.4,3.4c-0.1,1.3-0.5,2.5-1,3.6
		c-0.7,1.7-1.6,3.5-3.1,4.6c-1.5,1.1-3.8,1.4-5.1,0L67.6,50.2z"/>
	<path class="st1" d="M18.3,50.2c-0.6-0.8-1.4-1.5-2.3-1.8c-1-0.3-2-0.2-2.8,0.4c-1,0.7-1.5,2.1-1.4,3.4c0.1,1.3,0.5,2.5,1,3.6
		c0.7,1.7,1.6,3.5,3.1,4.6c1.5,1.1,3.8,1.4,5.1,0L18.3,50.2z"/>
	<path class="st0" d="M57.9,25.5c0.3,0.8,0.6,1.5,0.8,2.3c0.3-0.4,2.5-0.8,2.5-0.1c0.1-2,0.1-4,0.2-6c2.5,4.9,3.9,10.5,5.2,15.8
		c1.2,4.6,2.6,9.5,2.6,14.2c2.2-6.8,3.3-21,0.7-27.7c-1.1-2.9-2.6-5.7-5-7.6c-2.6-2.2-6-2.9-9.3-3.5c-9.5-1.7-19.7-1-28.5,3
		c-2.9,1.3-5.4,3.1-7.4,5.6c-1.5,2-2.5,4.3-3.1,6.7c-1.7,6.9-0.8,14,0.1,21c1.9-8.9,3.8-17.8,5.7-26.7c0,1.9,0.1,3.9,0.1,5.8
		c1.1,0,2.2-0.1,3.1-0.5c1-0.5,1.7-1.5,1.5-2.6c0.1,0.8,0.1,1.5,0.2,2.3c0.5-0.4,1-0.8,1.4-1.3c0.1,0.6,0.5,1.2,1.1,1.5
		c4.6-0.7,9.3-1.4,13.9-2c0-0.3,0-0.6,0-0.9c0,0.6,0.2,1.2,0.6,1.6c0.3-0.2,0.6-0.4,0.9-0.6c0.1,0.6,0.6,1.1,1.2,1.2
		c3.6,0,7.2,0.1,10.8,0.1C57.7,26.6,57.8,26,57.9,25.5z"/>
	<path class="st0" d="M84.1,4.8c-0.8,0.1-1.5,0.4-2.1,1C82.6,5.9,83.2,6,83.7,6c-0.6,0.6-1.1,1.1-1.7,1.7c0.7-0.7,2-0.5,2.7,0.2
		c0.7,0.7,1,1.7,1.3,2.7c1.4,5.2,2.8,10.8,1.2,15.9c-5.9-3.5-12.3-6.5-19-8c0.2-1.1-0.9-2.1-1.3-3.2c-0.4-1.2,0.3-2.5,1-3.6
		c1.7-2.7,3.6-5.3,6-7.4c2.4-2.1,5.2-3.7,8.4-4.3C82.9,1.6,83.5,3.2,84.1,4.8z"/>
	<path class="st0" d="M3.8,4.8c0.8,0.1,1.5,0.4,2.1,1C5.4,5.9,4.8,6,4.2,6c0.6,0.6,1.1,1.1,1.7,1.7C5.2,7,3.9,7.2,3.2,7.9
		c-0.7,0.7-1,1.7-1.3,2.7c-1.4,5.2-2.8,10.8-1.2,15.9c5.9-3.5,12.3-6.5,19-8c-0.2-1.1,0.9-2.1,1.3-3.2c0.4-1.2-0.3-2.5-1-3.6
		c-1.7-2.7-3.6-5.3-6-7.4C11.7,2.2,8.8,0.6,5.7,0C5.1,1.6,4.5,3.2,3.8,4.8z"/>
	<path class="st2" d="M18.3,16c-0.8,0.5-0.9,1.6-0.7,2.5c0.1,0.4,0.2,0.8,0.5,1c0.5,0.4,1.2,0.3,1.8,0.1c0.5-0.1,1.1-0.3,1.5-0.6
		s0.8-0.8,0.8-1.4c0-0.9-1-1.5-1.9-1.7C19.7,15.7,18.9,15.7,18.3,16z"/>
	<path class="st2" d="M23.6,14.8c0-0.5-0.2-0.9-0.5-1.3c-0.8-0.8-2.2-1.1-3-0.3c-0.7,0.6-0.7,1.8-0.1,2.6c0.6,0.7,1.7,0.9,2.6,0.5
		C23,16.1,23.5,15.5,23.6,14.8z"/>
	<path class="st2" d="M66.9,13.9c-0.5-0.3-1.2-0.5-1.7-0.3c-0.6,0.2-1,0.8-1,1.4c0.1,0.6,0.6,1.1,1.1,1.4c0.7,0.3,1.5,0.4,2-0.1
		c0.3-0.3,0.4-0.8,0.3-1.3C67.6,14.6,67.3,14.2,66.9,13.9z"/>
	<path class="st2" d="M66.2,16.2c-0.6,0.6-0.8,1.7-0.4,2.5c0.4,0.8,1.3,1.3,2.2,1.2c0.9-0.1,1.6-0.9,1.7-1.8c0-0.9-0.6-1.8-1.5-1.9
		C67.2,15.9,66.3,15.3,66.2,16.2z"/>
</g>
</svg>
