<?xml version="1.0" encoding="utf-8"?>
<!-- Generator: Adobe Illustrator 19.0.0, SVG Export Plug-In . SVG Version: 6.00 Build 0)  -->
<svg version="1.1" id="Layer_1" xmlns="http://www.w3.org/2000/svg" xmlns:xlink="http://www.w3.org/1999/xlink" x="0px" y="0px"
	 viewBox="0 0 15.3 3.5" style="enable-background:new 0 0 15.3 3.5;" xml:space="preserve">
<style type="text/css">
	.st0{fill:#EDA672;}
</style>
<g>
	<path class="st0" d="M0.6,1.1c-0.1,0-0.2,0-0.3,0C0.2,1.5,0,1.9,0,2.3c0,0.1,0,0.2,0,0.2c0,0.1,0.1,0.2,0.1,0.2
		c0.2,0.1,0.4-0.2,0.5-0.2c0.2-0.1,0.4,0,0.6,0.1c0.6,0.1,2.8,0.7,5,0.9c2.2,0.2,4.4-0.1,6.5-0.9c0.5-0.2,1.3-0.4,1.8-0.4
		c0.3,0,0.5,0.6,0.6,0.4c0.3-0.7-0.1-2-0.4-1.8c-0.3,0.2-0.2,0.4-0.3,0.7c-4.1,1.6-8.4,2-13.3,0.4C0.9,1.8,0.5,1.4,0.6,1.1z"/>
	<g>
		<g>
			<path class="st0" d="M1.1,2.1c0.4-0.4,2.2-1.2,3.1-1.5C5.3,0.1,6.6,0,7.8,0C9,0,10.1,0.2,11,0.6c0.8,0.3,2.7,0.8,3,1.1
				c0.4,0.4-2.9,1.3-6.1,1.3C4.4,3,0.7,2.5,1.1,2.1z"/>
		</g>
	</g>
</g>
</svg>
